<svg width="1024" height="1024" viewBox="0 0 1024 1024" xmlns="http://www.w3.org/2000/svg">
<rect x="0" y="0" width="1024" height="1024" style="fill:#FFFFFF;fill-opacity:1.0"/>
<rect x="124.121216" y="124.121216" width="31.030304" height="31.030304" rx="0.0" ry="0.0" style="fill:#004A4C;fill-opacity:1.0"/>
<rect x="155.15152" y="124.121216" width="31.030304" height="31.030304" rx="0.0" ry="0.0" style="fill:#004A4C;fill-opacity:1.0"/>
<rect x="186.18182" y="124.121216" width="31.030304" height="31.030304" rx="0.0" ry="0.0" style="fill:#004A4C;fill-opacity:1.0"/>
<rect x="217.21213" y="124.121216" width="31.030304" height="31.030304" rx="0.0" ry="0.0" style="fill:#004A4C;fill-opacity:1.0"/>
<rect x="248.24243" y="124.121216" width="31.030304" height="31.030304" rx="0.0" ry="0.0" style="fill:#004A4C;fill-opacity:1.0"/>
<rect x="279.27274" y="124.121216" width="31.030304" height="31.030304" rx="0.0" ry="0.0" style="fill:#004A4C;fill-opacity:1.0"/>
<rect x="310.30304" y="124.121216" width="31.030304" height="31.030304" rx="0.0" ry="0.0" style="fill:#004A4C;fill-opacity:1.0"/>
<rect x="434.42426" y="124.121216" width="31.030304" height="31.030304" rx="0.0" ry="0.0" style="fill:#004A4C;fill-opacity:1.0"/>
<rect x="589.5758" y="124.121216" width="31.030304" height="31.030304" rx="0.0" ry="0.0" style="fill:#004A4C;fill-opacity:1.0"/>
<rect x="682.6667" y="124.121216" width="31.030304" height="31.030304" rx="0.0" ry="0.0" style="fill:#004A4C;fill-opacity:1.0"/>
<rect x="713.697" y="124.121216" width="31.030304" height="31.030304" rx="0.0" ry="0.0" style="fill:#004A4C;fill-opacity:1.0"/>
<rect x="744.7273" y="124.121216" width="31.030304" height="31.030304" rx="0.0" ry="0.0" style="fill:#004A4C;fill-opacity:1.0"/>
<rect x="775.75757" y="124.121216" width="31.030304" height="31.030304" rx="0.0" ry="0.0" style="fill:#004A4C;fill-opacity:1.0"/>
<rect x="806.7879" y="124.121216" width="31.030304" height="31.030304" rx="0.0" ry="0.0" style="fill:#004A4C;fill-opacity:1.0"/>
<rect x="837.81824" y="124.121216" width="31.030304" height="31.030304" rx="0.0" ry="0.0" style="fill:#004A4C;fill-opacity:1.0"/>
<rect x="868.8485" y="124.121216" width="31.030304" height="31.030304" rx="0.0" ry="0.0" style="fill:#004A4C;fill-opacity:1.0"/>
<rect x="124.121216" y="155.15152" width="31.030304" height="31.030304" rx="0.0" ry="0.0" style="fill:#004A4C;fill-opacity:1.0"/>
<rect x="310.30304" y="155.15152" width="31.030304" height="31.030304" rx="0.0" ry="0.0" style="fill:#004A4C;fill-opacity:1.0"/>
<rect x="372.36365" y="155.15152" width="31.030304" height="31.030304" rx="0.0" ry="0.0" style="fill:#004A4C;fill-opacity:1.0"/>
<rect x="403.39395" y="155.15152" width="31.030304" height="31.030304" rx="0.0" ry="0.0" style="fill:#004A4C;fill-opacity:1.0"/>
<rect x="434.42426" y="155.15152" width="31.030304" height="31.030304" rx="0.0" ry="0.0" style="fill:#004A4C;fill-opacity:1.0"/>
<rect x="527.51514" y="155.15152" width="31.030304" height="31.030304" rx="0.0" ry="0.0" style="fill:#004A4C;fill-opacity:1.0"/>
<rect x="558.5455" y="155.15152" width="31.030304" height="31.030304" rx="0.0" ry="0.0" style="fill:#004A4C;fill-opacity:1.0"/>
<rect x="589.5758" y="155.15152" width="31.030304" height="31.030304" rx="0.0" ry="0.0" style="fill:#004A4C;fill-opacity:1.0"/>
<rect x="620.6061" y="155.15152" width="31.030304" height="31.030304" rx="0.0" ry="0.0" style="fill:#004A4C;fill-opacity:1.0"/>
<rect x="682.6667" y="155.15152" width="31.030304" height="31.030304" rx="0.0" ry="0.0" style="fill:#004A4C;fill-opacity:1.0"/>
<rect x="868.8485" y="155.15152" width="31.030304" height="31.030304" rx="0.0" ry="0.0" style="fill:#004A4C;fill-opacity:1.0"/>
<rect x="124.121216" y="186.18182" width="31.030304" height="31.030304" rx="0.0" ry="0.0" style="fill:#004A4C;fill-opacity:1.0"/>
<rect x="186.18182" y="186.18182" width="31.030304" height="31.030304" rx="0.0" ry="0.0" style="fill:#004A4C;fill-opacity:1.0"/>
<rect x="217.21213" y="186.18182" width="31.030304" height="31.030304" rx="0.0" ry="0.0" style="fill:#004A4C;fill-opacity:1.0"/>
<rect x="248.24243" y="186.18182" width="31.030304" height="31.030304" rx="0.0" ry="0.0" style="fill:#004A4C;fill-opacity:1.0"/>
<rect x="310.30304" y="186.18182" width="31.030304" height="31.030304" rx="0.0" ry="0.0" style="fill:#004A4C;fill-opacity:1.0"/>
<rect x="372.36365" y="186.18182" width="31.030304" height="31.030304" rx="0.0" ry="0.0" style="fill:#004A4C;fill-opacity:1.0"/>
<rect x="527.51514" y="186.18182" width="31.030304" height="31.030304" rx="0.0" ry="0.0" style="fill:#004A4C;fill-opacity:1.0"/>
<rect x="589.5758" y="186.18182" width="31.030304" height="31.030304" rx="0.0" ry="0.0" style="fill:#004A4C;fill-opacity:1.0"/>
<rect x="682.6667" y="186.18182" width="31.030304" height="31.030304" rx="0.0" ry="0.0" style="fill:#004A4C;fill-opacity:1.0"/>
<rect x="744.7273" y="186.18182" width="31.030304" height="31.030304" rx="0.0" ry="0.0" style="fill:#004A4C;fill-opacity:1.0"/>
<rect x="775.75757" y="186.18182" width="31.030304" height="31.030304" rx="0.0" ry="0.0" style="fill:#004A4C;fill-opacity:1.0"/>
<rect x="806.7879" y="186.18182" width="31.030304" height="31.030304" rx="0.0" ry="0.0" style="fill:#004A4C;fill-opacity:1.0"/>
<rect x="868.8485" y="186.18182" width="31.030304" height="31.030304" rx="0.0" ry="0.0" style="fill:#004A4C;fill-opacity:1.0"/>
<rect x="124.121216" y="217.21213" width="31.030304" height="31.030304" rx="0.0" ry="0.0" style="fill:#004A4C;fill-opacity:1.0"/>
<rect x="186.18182" y="217.21213" width="31.030304" height="31.030304" rx="0.0" ry="0.0" style="fill:#004A4C;fill-opacity:1.0"/>
<rect x="217.21213" y="217.21213" width="31.030304" height="31.030304" rx="0.0" ry="0.0" style="fill:#004A4C;fill-opacity:1.0"/>
<rect x="248.24243" y="217.21213" width="31.030304" height="31.030304" rx="0.0" ry="0.0" style="fill:#004A4C;fill-opacity:1.0"/>
<rect x="310.30304" y="217.21213" width="31.030304" height="31.030304" rx="0.0" ry="0.0" style="fill:#004A4C;fill-opacity:1.0"/>
<rect x="403.39395" y="217.21213" width="31.030304" height="31.030304" rx="0.0" ry="0.0" style="fill:#004A4C;fill-opacity:1.0"/>
<rect x="496.48486" y="217.21213" width="31.030304" height="31.030304" rx="0.0" ry="0.0" style="fill:#004A4C;fill-opacity:1.0"/>
<rect x="527.51514" y="217.21213" width="31.030304" height="31.030304" rx="0.0" ry="0.0" style="fill:#004A4C;fill-opacity:1.0"/>
<rect x="589.5758" y="217.21213" width="31.030304" height="31.030304" rx="0.0" ry="0.0" style="fill:#004A4C;fill-opacity:1.0"/>
<rect x="682.6667" y="217.21213" width="31.030304" height="31.030304" rx="0.0" ry="0.0" style="fill:#004A4C;fill-opacity:1.0"/>
<rect x="744.7273" y="217.21213" width="31.030304" height="31.030304" rx="0.0" ry="0.0" style="fill:#004A4C;fill-opacity:1.0"/>
<rect x="775.75757" y="217.21213" width="31.030304" height="31.030304" rx="0.0" ry="0.0" style="fill:#004A4C;fill-opacity:1.0"/>
<rect x="806.7879" y="217.21213" width="31.030304" height="31.030304" rx="0.0" ry="0.0" style="fill:#004A4C;fill-opacity:1.0"/>
<rect x="868.8485" y="217.21213" width="31.030304" height="31.030304" rx="0.0" ry="0.0" style="fill:#004A4C;fill-opacity:1.0"/>
<rect x="124.121216" y="248.24243" width="31.030304" height="31.030304" rx="0.0" ry="0.0" style="fill:#004A4C;fill-opacity:1.0"/>
<rect x="186.18182" y="248.24243" width="31.030304" height="31.030304" rx="0.0" ry="0.0" style="fill:#004A4C;fill-opacity:1.0"/>
<rect x="217.21213" y="248.24243" width="31.030304" height="31.030304" rx="0.0" ry="0.0" style="fill:#004A4C;fill-opacity:1.0"/>
<rect x="248.24243" y="248.24243" width="31.030304" height="31.030304" rx="0.0" ry="0.0" style="fill:#004A4C;fill-opacity:1.0"/>
<rect x="310.30304" y="248.24243" width="31.030304" height="31.030304" rx="0.0" ry="0.0" style="fill:#004A4C;fill-opacity:1.0"/>
<rect x="372.36365" y="248.24243" width="31.030304" height="31.030304" rx="0.0" ry="0.0" style="fill:#004A4C;fill-opacity:1.0"/>
<rect x="403.39395" y="248.24243" width="31.030304" height="31.030304" rx="0.0" ry="0.0" style="fill:#004A4C;fill-opacity:1.0"/>
<rect x="434.42426" y="248.24243" width="31.030304" height="31.030304" rx="0.0" ry="0.0" style="fill:#004A4C;fill-opacity:1.0"/>
<rect x="496.48486" y="248.24243" width="31.030304" height="31.030304" rx="0.0" ry="0.0" style="fill:#004A4C;fill-opacity:1.0"/>
<rect x="527.51514" y="248.24243" width="31.030304" height="31.030304" rx="0.0" ry="0.0" style="fill:#004A4C;fill-opacity:1.0"/>
<rect x="589.5758" y="248.24243" width="31.030304" height="31.030304" rx="0.0" ry="0.0" style="fill:#004A4C;fill-opacity:1.0"/>
<rect x="620.6061" y="248.24243" width="31.030304" height="31.030304" rx="0.0" ry="0.0" style="fill:#004A4C;fill-opacity:1.0"/>
<rect x="682.6667" y="248.24243" width="31.030304" height="31.030304" rx="0.0" ry="0.0" style="fill:#004A4C;fill-opacity:1.0"/>
<rect x="744.7273" y="248.24243" width="31.030304" height="31.030304" rx="0.0" ry="0.0" style="fill:#004A4C;fill-opacity:1.0"/>
<rect x="775.75757" y="248.24243" width="31.030304" height="31.030304" rx="0.0" ry="0.0" style="fill:#004A4C;fill-opacity:1.0"/>
<rect x="806.7879" y="248.24243" width="31.030304" height="31.030304" rx="0.0" ry="0.0" style="fill:#004A4C;fill-opacity:1.0"/>
<rect x="868.8485" y="248.24243" width="31.030304" height="31.030304" rx="0.0" ry="0.0" style="fill:#004A4C;fill-opacity:1.0"/>
<rect x="124.121216" y="279.27274" width="31.030304" height="31.030304" rx="0.0" ry="0.0" style="fill:#004A4C;fill-opacity:1.0"/>
<rect x="310.30304" y="279.27274" width="31.030304" height="31.030304" rx="0.0" ry="0.0" style="fill:#004A4C;fill-opacity:1.0"/>
<rect x="372.36365" y="279.27274" width="31.030304" height="31.030304" rx="0.0" ry="0.0" style="fill:#004A4C;fill-opacity:1.0"/>
<rect x="434.42426" y="279.27274" width="31.030304" height="31.030304" rx="0.0" ry="0.0" style="fill:#004A4C;fill-opacity:1.0"/>
<rect x="496.48486" y="279.27274" width="31.030304" height="31.030304" rx="0.0" ry="0.0" style="fill:#004A4C;fill-opacity:1.0"/>
<rect x="682.6667" y="279.27274" width="31.030304" height="31.030304" rx="0.0" ry="0.0" style="fill:#004A4C;fill-opacity:1.0"/>
<rect x="868.8485" y="279.27274" width="31.030304" height="31.030304" rx="0.0" ry="0.0" style="fill:#004A4C;fill-opacity:1.0"/>
<rect x="124.121216" y="310.30304" width="31.030304" height="31.030304" rx="0.0" ry="0.0" style="fill:#004A4C;fill-opacity:1.0"/>
<rect x="155.15152" y="310.30304" width="31.030304" height="31.030304" rx="0.0" ry="0.0" style="fill:#004A4C;fill-opacity:1.0"/>
<rect x="186.18182" y="310.30304" width="31.030304" height="31.030304" rx="0.0" ry="0.0" style="fill:#004A4C;fill-opacity:1.0"/>
<rect x="217.21213" y="310.30304" width="31.030304" height="31.030304" rx="0.0" ry="0.0" style="fill:#004A4C;fill-opacity:1.0"/>
<rect x="248.24243" y="310.30304" width="31.030304" height="31.030304" rx="0.0" ry="0.0" style="fill:#004A4C;fill-opacity:1.0"/>
<rect x="279.27274" y="310.30304" width="31.030304" height="31.030304" rx="0.0" ry="0.0" style="fill:#004A4C;fill-opacity:1.0"/>
<rect x="310.30304" y="310.30304" width="31.030304" height="31.030304" rx="0.0" ry="0.0" style="fill:#004A4C;fill-opacity:1.0"/>
<rect x="372.36365" y="310.30304" width="31.030304" height="31.030304" rx="0.0" ry="0.0" style="fill:#004A4C;fill-opacity:1.0"/>
<rect x="434.42426" y="310.30304" width="31.030304" height="31.030304" rx="0.0" ry="0.0" style="fill:#004A4C;fill-opacity:1.0"/>
<rect x="496.48486" y="310.30304" width="31.030304" height="31.030304" rx="0.0" ry="0.0" style="fill:#004A4C;fill-opacity:1.0"/>
<rect x="558.5455" y="310.30304" width="31.030304" height="31.030304" rx="0.0" ry="0.0" style="fill:#004A4C;fill-opacity:1.0"/>
<rect x="620.6061" y="310.30304" width="31.030304" height="31.030304" rx="0.0" ry="0.0" style="fill:#004A4C;fill-opacity:1.0"/>
<rect x="682.6667" y="310.30304" width="31.030304" height="31.030304" rx="0.0" ry="0.0" style="fill:#004A4C;fill-opacity:1.0"/>
<rect x="713.697" y="310.30304" width="31.030304" height="31.030304" rx="0.0" ry="0.0" style="fill:#004A4C;fill-opacity:1.0"/>
<rect x="744.7273" y="310.30304" width="31.030304" height="31.030304" rx="0.0" ry="0.0" style="fill:#004A4C;fill-opacity:1.0"/>
<rect x="775.75757" y="310.30304" width="31.030304" height="31.030304" rx="0.0" ry="0.0" style="fill:#004A4C;fill-opacity:1.0"/>
<rect x="806.7879" y="310.30304" width="31.030304" height="31.030304" rx="0.0" ry="0.0" style="fill:#004A4C;fill-opacity:1.0"/>
<rect x="837.81824" y="310.30304" width="31.030304" height="31.030304" rx="0.0" ry="0.0" style="fill:#004A4C;fill-opacity:1.0"/>
<rect x="868.8485" y="310.30304" width="31.030304" height="31.030304" rx="0.0" ry="0.0" style="fill:#004A4C;fill-opacity:1.0"/>
<rect x="372.36365" y="341.33334" width="31.030304" height="31.030304" rx="0.0" ry="0.0" style="fill:#004A4C;fill-opacity:1.0"/>
<rect x="434.42426" y="341.33334" width="31.030304" height="31.030304" rx="0.0" ry="0.0" style="fill:#004A4C;fill-opacity:1.0"/>
<rect x="465.45456" y="341.33334" width="31.030304" height="31.030304" rx="0.0" ry="0.0" style="fill:#004A4C;fill-opacity:1.0"/>
<rect x="558.5455" y="341.33334" width="31.030304" height="31.030304" rx="0.0" ry="0.0" style="fill:#004A4C;fill-opacity:1.0"/>
<rect x="620.6061" y="341.33334" width="31.030304" height="31.030304" rx="0.0" ry="0.0" style="fill:#004A4C;fill-opacity:1.0"/>
<rect x="124.121216" y="372.36365" width="31.030304" height="31.030304" rx="0.0" ry="0.0" style="fill:#004A4C;fill-opacity:1.0"/>
<rect x="155.15152" y="372.36365" width="31.030304" height="31.030304" rx="0.0" ry="0.0" style="fill:#004A4C;fill-opacity:1.0"/>
<rect x="217.21213" y="372.36365" width="31.030304" height="31.030304" rx="0.0" ry="0.0" style="fill:#004A4C;fill-opacity:1.0"/>
<rect x="310.30304" y="372.36365" width="31.030304" height="31.030304" rx="0.0" ry="0.0" style="fill:#004A4C;fill-opacity:1.0"/>
<rect x="341.33334" y="372.36365" width="31.030304" height="31.030304" rx="0.0" ry="0.0" style="fill:#004A4C;fill-opacity:1.0"/>
<rect x="465.45456" y="372.36365" width="31.030304" height="31.030304" rx="0.0" ry="0.0" style="fill:#004A4C;fill-opacity:1.0"/>
<rect x="496.48486" y="372.36365" width="31.030304" height="31.030304" rx="0.0" ry="0.0" style="fill:#004A4C;fill-opacity:1.0"/>
<rect x="558.5455" y="372.36365" width="31.030304" height="31.030304" rx="0.0" ry="0.0" style="fill:#004A4C;fill-opacity:1.0"/>
<rect x="682.6667" y="372.36365" width="31.030304" height="31.030304" rx="0.0" ry="0.0" style="fill:#004A4C;fill-opacity:1.0"/>
<rect x="713.697" y="372.36365" width="31.030304" height="31.030304" rx="0.0" ry="0.0" style="fill:#004A4C;fill-opacity:1.0"/>
<rect x="744.7273" y="372.36365" width="31.030304" height="31.030304" rx="0.0" ry="0.0" style="fill:#004A4C;fill-opacity:1.0"/>
<rect x="806.7879" y="372.36365" width="31.030304" height="31.030304" rx="0.0" ry="0.0" style="fill:#004A4C;fill-opacity:1.0"/>
<rect x="837.81824" y="372.36365" width="31.030304" height="31.030304" rx="0.0" ry="0.0" style="fill:#004A4C;fill-opacity:1.0"/>
<rect x="372.36365" y="403.39395" width="31.030304" height="31.030304" rx="0.0" ry="0.0" style="fill:#004A4C;fill-opacity:1.0"/>
<rect x="403.39395" y="403.39395" width="31.030304" height="31.030304" rx="0.0" ry="0.0" style="fill:#004A4C;fill-opacity:1.0"/>
<rect x="465.45456" y="403.39395" width="31.030304" height="31.030304" rx="0.0" ry="0.0" style="fill:#004A4C;fill-opacity:1.0"/>
<rect x="496.48486" y="403.39395" width="31.030304" height="31.030304" rx="0.0" ry="0.0" style="fill:#004A4C;fill-opacity:1.0"/>
<rect x="527.51514" y="403.39395" width="31.030304" height="31.030304" rx="0.0" ry="0.0" style="fill:#004A4C;fill-opacity:1.0"/>
<rect x="589.5758" y="403.39395" width="31.030304" height="31.030304" rx="0.0" ry="0.0" style="fill:#004A4C;fill-opacity:1.0"/>
<rect x="682.6667" y="403.39395" width="31.030304" height="31.030304" rx="0.0" ry="0.0" style="fill:#004A4C;fill-opacity:1.0"/>
<rect x="744.7273" y="403.39395" width="31.030304" height="31.030304" rx="0.0" ry="0.0" style="fill:#004A4C;fill-opacity:1.0"/>
<rect x="837.81824" y="403.39395" width="31.030304" height="31.030304" rx="0.0" ry="0.0" style="fill:#004A4C;fill-opacity:1.0"/>
<rect x="155.15152" y="434.42426" width="31.030304" height="31.030304" rx="0.0" ry="0.0" style="fill:#004A4C;fill-opacity:1.0"/>
<rect x="279.27274" y="434.42426" width="31.030304" height="31.030304" rx="0.0" ry="0.0" style="fill:#004A4C;fill-opacity:1.0"/>
<rect x="310.30304" y="434.42426" width="31.030304" height="31.030304" rx="0.0" ry="0.0" style="fill:#004A4C;fill-opacity:1.0"/>
<rect x="372.36365" y="434.42426" width="31.030304" height="31.030304" rx="0.0" ry="0.0" style="fill:#004A4C;fill-opacity:1.0"/>
<rect x="465.45456" y="434.42426" width="31.030304" height="31.030304" rx="0.0" ry="0.0" style="fill:#004A4C;fill-opacity:1.0"/>
<rect x="496.48486" y="434.42426" width="31.030304" height="31.030304" rx="0.0" ry="0.0" style="fill:#004A4C;fill-opacity:1.0"/>
<rect x="589.5758" y="434.42426" width="31.030304" height="31.030304" rx="0.0" ry="0.0" style="fill:#004A4C;fill-opacity:1.0"/>
<rect x="620.6061" y="434.42426" width="31.030304" height="31.030304" rx="0.0" ry="0.0" style="fill:#004A4C;fill-opacity:1.0"/>
<rect x="651.63635" y="434.42426" width="31.030304" height="31.030304" rx="0.0" ry="0.0" style="fill:#004A4C;fill-opacity:1.0"/>
<rect x="682.6667" y="434.42426" width="31.030304" height="31.030304" rx="0.0" ry="0.0" style="fill:#004A4C;fill-opacity:1.0"/>
<rect x="713.697" y="434.42426" width="31.030304" height="31.030304" rx="0.0" ry="0.0" style="fill:#004A4C;fill-opacity:1.0"/>
<rect x="775.75757" y="434.42426" width="31.030304" height="31.030304" rx="0.0" ry="0.0" style="fill:#004A4C;fill-opacity:1.0"/>
<rect x="806.7879" y="434.42426" width="31.030304" height="31.030304" rx="0.0" ry="0.0" style="fill:#004A4C;fill-opacity:1.0"/>
<rect x="124.121216" y="465.45456" width="31.030304" height="31.030304" rx="0.0" ry="0.0" style="fill:#004A4C;fill-opacity:1.0"/>
<rect x="155.15152" y="465.45456" width="31.030304" height="31.030304" rx="0.0" ry="0.0" style="fill:#004A4C;fill-opacity:1.0"/>
<rect x="279.27274" y="465.45456" width="31.030304" height="31.030304" rx="0.0" ry="0.0" style="fill:#004A4C;fill-opacity:1.0"/>
<rect x="341.33334" y="465.45456" width="31.030304" height="31.030304" rx="0.0" ry="0.0" style="fill:#004A4C;fill-opacity:1.0"/>
<rect x="372.36365" y="465.45456" width="31.030304" height="31.030304" rx="0.0" ry="0.0" style="fill:#004A4C;fill-opacity:1.0"/>
<rect x="403.39395" y="465.45456" width="31.030304" height="31.030304" rx="0.0" ry="0.0" style="fill:#004A4C;fill-opacity:1.0"/>
<rect x="434.42426" y="465.45456" width="31.030304" height="31.030304" rx="0.0" ry="0.0" style="fill:#004A4C;fill-opacity:1.0"/>
<rect x="465.45456" y="465.45456" width="31.030304" height="31.030304" rx="0.0" ry="0.0" style="fill:#004A4C;fill-opacity:1.0"/>
<rect x="496.48486" y="465.45456" width="31.030304" height="31.030304" rx="0.0" ry="0.0" style="fill:#004A4C;fill-opacity:1.0"/>
<rect x="558.5455" y="465.45456" width="31.030304" height="31.030304" rx="0.0" ry="0.0" style="fill:#004A4C;fill-opacity:1.0"/>
<rect x="620.6061" y="465.45456" width="31.030304" height="31.030304" rx="0.0" ry="0.0" style="fill:#004A4C;fill-opacity:1.0"/>
<rect x="682.6667" y="465.45456" width="31.030304" height="31.030304" rx="0.0" ry="0.0" style="fill:#004A4C;fill-opacity:1.0"/>
<rect x="713.697" y="465.45456" width="31.030304" height="31.030304" rx="0.0" ry="0.0" style="fill:#004A4C;fill-opacity:1.0"/>
<rect x="744.7273" y="465.45456" width="31.030304" height="31.030304" rx="0.0" ry="0.0" style="fill:#004A4C;fill-opacity:1.0"/>
<rect x="868.8485" y="465.45456" width="31.030304" height="31.030304" rx="0.0" ry="0.0" style="fill:#004A4C;fill-opacity:1.0"/>
<rect x="124.121216" y="496.48486" width="31.030304" height="31.030304" rx="0.0" ry="0.0" style="fill:#004A4C;fill-opacity:1.0"/>
<rect x="310.30304" y="496.48486" width="31.030304" height="31.030304" rx="0.0" ry="0.0" style="fill:#004A4C;fill-opacity:1.0"/>
<rect x="372.36365" y="496.48486" width="31.030304" height="31.030304" rx="0.0" ry="0.0" style="fill:#004A4C;fill-opacity:1.0"/>
<rect x="434.42426" y="496.48486" width="31.030304" height="31.030304" rx="0.0" ry="0.0" style="fill:#004A4C;fill-opacity:1.0"/>
<rect x="465.45456" y="496.48486" width="31.030304" height="31.030304" rx="0.0" ry="0.0" style="fill:#004A4C;fill-opacity:1.0"/>
<rect x="496.48486" y="496.48486" width="31.030304" height="31.030304" rx="0.0" ry="0.0" style="fill:#004A4C;fill-opacity:1.0"/>
<rect x="558.5455" y="496.48486" width="31.030304" height="31.030304" rx="0.0" ry="0.0" style="fill:#004A4C;fill-opacity:1.0"/>
<rect x="620.6061" y="496.48486" width="31.030304" height="31.030304" rx="0.0" ry="0.0" style="fill:#004A4C;fill-opacity:1.0"/>
<rect x="651.63635" y="496.48486" width="31.030304" height="31.030304" rx="0.0" ry="0.0" style="fill:#004A4C;fill-opacity:1.0"/>
<rect x="713.697" y="496.48486" width="31.030304" height="31.030304" rx="0.0" ry="0.0" style="fill:#004A4C;fill-opacity:1.0"/>
<rect x="806.7879" y="496.48486" width="31.030304" height="31.030304" rx="0.0" ry="0.0" style="fill:#004A4C;fill-opacity:1.0"/>
<rect x="837.81824" y="496.48486" width="31.030304" height="31.030304" rx="0.0" ry="0.0" style="fill:#004A4C;fill-opacity:1.0"/>
<rect x="868.8485" y="496.48486" width="31.030304" height="31.030304" rx="0.0" ry="0.0" style="fill:#004A4C;fill-opacity:1.0"/>
<rect x="248.24243" y="527.51514" width="31.030304" height="31.030304" rx="0.0" ry="0.0" style="fill:#004A4C;fill-opacity:1.0"/>
<rect x="341.33334" y="527.51514" width="31.030304" height="31.030304" rx="0.0" ry="0.0" style="fill:#004A4C;fill-opacity:1.0"/>
<rect x="465.45456" y="527.51514" width="31.030304" height="31.030304" rx="0.0" ry="0.0" style="fill:#004A4C;fill-opacity:1.0"/>
<rect x="620.6061" y="527.51514" width="31.030304" height="31.030304" rx="0.0" ry="0.0" style="fill:#004A4C;fill-opacity:1.0"/>
<rect x="713.697" y="527.51514" width="31.030304" height="31.030304" rx="0.0" ry="0.0" style="fill:#004A4C;fill-opacity:1.0"/>
<rect x="744.7273" y="527.51514" width="31.030304" height="31.030304" rx="0.0" ry="0.0" style="fill:#004A4C;fill-opacity:1.0"/>
<rect x="806.7879" y="527.51514" width="31.030304" height="31.030304" rx="0.0" ry="0.0" style="fill:#004A4C;fill-opacity:1.0"/>
<rect x="837.81824" y="527.51514" width="31.030304" height="31.030304" rx="0.0" ry="0.0" style="fill:#004A4C;fill-opacity:1.0"/>
<rect x="124.121216" y="558.5455" width="31.030304" height="31.030304" rx="0.0" ry="0.0" style="fill:#004A4C;fill-opacity:1.0"/>
<rect x="248.24243" y="558.5455" width="31.030304" height="31.030304" rx="0.0" ry="0.0" style="fill:#004A4C;fill-opacity:1.0"/>
<rect x="279.27274" y="558.5455" width="31.030304" height="31.030304" rx="0.0" ry="0.0" style="fill:#004A4C;fill-opacity:1.0"/>
<rect x="310.30304" y="558.5455" width="31.030304" height="31.030304" rx="0.0" ry="0.0" style="fill:#004A4C;fill-opacity:1.0"/>
<rect x="403.39395" y="558.5455" width="31.030304" height="31.030304" rx="0.0" ry="0.0" style="fill:#004A4C;fill-opacity:1.0"/>
<rect x="434.42426" y="558.5455" width="31.030304" height="31.030304" rx="0.0" ry="0.0" style="fill:#004A4C;fill-opacity:1.0"/>
<rect x="465.45456" y="558.5455" width="31.030304" height="31.030304" rx="0.0" ry="0.0" style="fill:#004A4C;fill-opacity:1.0"/>
<rect x="496.48486" y="558.5455" width="31.030304" height="31.030304" rx="0.0" ry="0.0" style="fill:#004A4C;fill-opacity:1.0"/>
<rect x="527.51514" y="558.5455" width="31.030304" height="31.030304" rx="0.0" ry="0.0" style="fill:#004A4C;fill-opacity:1.0"/>
<rect x="558.5455" y="558.5455" width="31.030304" height="31.030304" rx="0.0" ry="0.0" style="fill:#004A4C;fill-opacity:1.0"/>
<rect x="682.6667" y="558.5455" width="31.030304" height="31.030304" rx="0.0" ry="0.0" style="fill:#004A4C;fill-opacity:1.0"/>
<rect x="744.7273" y="558.5455" width="31.030304" height="31.030304" rx="0.0" ry="0.0" style="fill:#004A4C;fill-opacity:1.0"/>
<rect x="775.75757" y="558.5455" width="31.030304" height="31.030304" rx="0.0" ry="0.0" style="fill:#004A4C;fill-opacity:1.0"/>
<rect x="837.81824" y="558.5455" width="31.030304" height="31.030304" rx="0.0" ry="0.0" style="fill:#004A4C;fill-opacity:1.0"/>
<rect x="155.15152" y="589.5758" width="31.030304" height="31.030304" rx="0.0" ry="0.0" style="fill:#004A4C;fill-opacity:1.0"/>
<rect x="341.33334" y="589.5758" width="31.030304" height="31.030304" rx="0.0" ry="0.0" style="fill:#004A4C;fill-opacity:1.0"/>
<rect x="372.36365" y="589.5758" width="31.030304" height="31.030304" rx="0.0" ry="0.0" style="fill:#004A4C;fill-opacity:1.0"/>
<rect x="403.39395" y="589.5758" width="31.030304" height="31.030304" rx="0.0" ry="0.0" style="fill:#004A4C;fill-opacity:1.0"/>
<rect x="465.45456" y="589.5758" width="31.030304" height="31.030304" rx="0.0" ry="0.0" style="fill:#004A4C;fill-opacity:1.0"/>
<rect x="527.51514" y="589.5758" width="31.030304" height="31.030304" rx="0.0" ry="0.0" style="fill:#004A4C;fill-opacity:1.0"/>
<rect x="558.5455" y="589.5758" width="31.030304" height="31.030304" rx="0.0" ry="0.0" style="fill:#004A4C;fill-opacity:1.0"/>
<rect x="620.6061" y="589.5758" width="31.030304" height="31.030304" rx="0.0" ry="0.0" style="fill:#004A4C;fill-opacity:1.0"/>
<rect x="651.63635" y="589.5758" width="31.030304" height="31.030304" rx="0.0" ry="0.0" style="fill:#004A4C;fill-opacity:1.0"/>
<rect x="682.6667" y="589.5758" width="31.030304" height="31.030304" rx="0.0" ry="0.0" style="fill:#004A4C;fill-opacity:1.0"/>
<rect x="713.697" y="589.5758" width="31.030304" height="31.030304" rx="0.0" ry="0.0" style="fill:#004A4C;fill-opacity:1.0"/>
<rect x="124.121216" y="620.6061" width="31.030304" height="31.030304" rx="0.0" ry="0.0" style="fill:#004A4C;fill-opacity:1.0"/>
<rect x="155.15152" y="620.6061" width="31.030304" height="31.030304" rx="0.0" ry="0.0" style="fill:#004A4C;fill-opacity:1.0"/>
<rect x="186.18182" y="620.6061" width="31.030304" height="31.030304" rx="0.0" ry="0.0" style="fill:#004A4C;fill-opacity:1.0"/>
<rect x="279.27274" y="620.6061" width="31.030304" height="31.030304" rx="0.0" ry="0.0" style="fill:#004A4C;fill-opacity:1.0"/>
<rect x="310.30304" y="620.6061" width="31.030304" height="31.030304" rx="0.0" ry="0.0" style="fill:#004A4C;fill-opacity:1.0"/>
<rect x="341.33334" y="620.6061" width="31.030304" height="31.030304" rx="0.0" ry="0.0" style="fill:#004A4C;fill-opacity:1.0"/>
<rect x="434.42426" y="620.6061" width="31.030304" height="31.030304" rx="0.0" ry="0.0" style="fill:#004A4C;fill-opacity:1.0"/>
<rect x="527.51514" y="620.6061" width="31.030304" height="31.030304" rx="0.0" ry="0.0" style="fill:#004A4C;fill-opacity:1.0"/>
<rect x="620.6061" y="620.6061" width="31.030304" height="31.030304" rx="0.0" ry="0.0" style="fill:#004A4C;fill-opacity:1.0"/>
<rect x="651.63635" y="620.6061" width="31.030304" height="31.030304" rx="0.0" ry="0.0" style="fill:#004A4C;fill-opacity:1.0"/>
<rect x="682.6667" y="620.6061" width="31.030304" height="31.030304" rx="0.0" ry="0.0" style="fill:#004A4C;fill-opacity:1.0"/>
<rect x="713.697" y="620.6061" width="31.030304" height="31.030304" rx="0.0" ry="0.0" style="fill:#004A4C;fill-opacity:1.0"/>
<rect x="744.7273" y="620.6061" width="31.030304" height="31.030304" rx="0.0" ry="0.0" style="fill:#004A4C;fill-opacity:1.0"/>
<rect x="868.8485" y="620.6061" width="31.030304" height="31.030304" rx="0.0" ry="0.0" style="fill:#004A4C;fill-opacity:1.0"/>
<rect x="372.36365" y="651.63635" width="31.030304" height="31.030304" rx="0.0" ry="0.0" style="fill:#004A4C;fill-opacity:1.0"/>
<rect x="434.42426" y="651.63635" width="31.030304" height="31.030304" rx="0.0" ry="0.0" style="fill:#004A4C;fill-opacity:1.0"/>
<rect x="465.45456" y="651.63635" width="31.030304" height="31.030304" rx="0.0" ry="0.0" style="fill:#004A4C;fill-opacity:1.0"/>
<rect x="496.48486" y="651.63635" width="31.030304" height="31.030304" rx="0.0" ry="0.0" style="fill:#004A4C;fill-opacity:1.0"/>
<rect x="527.51514" y="651.63635" width="31.030304" height="31.030304" rx="0.0" ry="0.0" style="fill:#004A4C;fill-opacity:1.0"/>
<rect x="620.6061" y="651.63635" width="31.030304" height="31.030304" rx="0.0" ry="0.0" style="fill:#004A4C;fill-opacity:1.0"/>
<rect x="744.7273" y="651.63635" width="31.030304" height="31.030304" rx="0.0" ry="0.0" style="fill:#004A4C;fill-opacity:1.0"/>
<rect x="124.121216" y="682.6667" width="31.030304" height="31.030304" rx="0.0" ry="0.0" style="fill:#004A4C;fill-opacity:1.0"/>
<rect x="155.15152" y="682.6667" width="31.030304" height="31.030304" rx="0.0" ry="0.0" style="fill:#004A4C;fill-opacity:1.0"/>
<rect x="186.18182" y="682.6667" width="31.030304" height="31.030304" rx="0.0" ry="0.0" style="fill:#004A4C;fill-opacity:1.0"/>
<rect x="217.21213" y="682.6667" width="31.030304" height="31.030304" rx="0.0" ry="0.0" style="fill:#004A4C;fill-opacity:1.0"/>
<rect x="248.24243" y="682.6667" width="31.030304" height="31.030304" rx="0.0" ry="0.0" style="fill:#004A4C;fill-opacity:1.0"/>
<rect x="279.27274" y="682.6667" width="31.030304" height="31.030304" rx="0.0" ry="0.0" style="fill:#004A4C;fill-opacity:1.0"/>
<rect x="310.30304" y="682.6667" width="31.030304" height="31.030304" rx="0.0" ry="0.0" style="fill:#004A4C;fill-opacity:1.0"/>
<rect x="372.36365" y="682.6667" width="31.030304" height="31.030304" rx="0.0" ry="0.0" style="fill:#004A4C;fill-opacity:1.0"/>
<rect x="465.45456" y="682.6667" width="31.030304" height="31.030304" rx="0.0" ry="0.0" style="fill:#004A4C;fill-opacity:1.0"/>
<rect x="496.48486" y="682.6667" width="31.030304" height="31.030304" rx="0.0" ry="0.0" style="fill:#004A4C;fill-opacity:1.0"/>
<rect x="527.51514" y="682.6667" width="31.030304" height="31.030304" rx="0.0" ry="0.0" style="fill:#004A4C;fill-opacity:1.0"/>
<rect x="620.6061" y="682.6667" width="31.030304" height="31.030304" rx="0.0" ry="0.0" style="fill:#004A4C;fill-opacity:1.0"/>
<rect x="682.6667" y="682.6667" width="31.030304" height="31.030304" rx="0.0" ry="0.0" style="fill:#004A4C;fill-opacity:1.0"/>
<rect x="744.7273" y="682.6667" width="31.030304" height="31.030304" rx="0.0" ry="0.0" style="fill:#004A4C;fill-opacity:1.0"/>
<rect x="775.75757" y="682.6667" width="31.030304" height="31.030304" rx="0.0" ry="0.0" style="fill:#004A4C;fill-opacity:1.0"/>
<rect x="837.81824" y="682.6667" width="31.030304" height="31.030304" rx="0.0" ry="0.0" style="fill:#004A4C;fill-opacity:1.0"/>
<rect x="868.8485" y="682.6667" width="31.030304" height="31.030304" rx="0.0" ry="0.0" style="fill:#004A4C;fill-opacity:1.0"/>
<rect x="124.121216" y="713.697" width="31.030304" height="31.030304" rx="0.0" ry="0.0" style="fill:#004A4C;fill-opacity:1.0"/>
<rect x="310.30304" y="713.697" width="31.030304" height="31.030304" rx="0.0" ry="0.0" style="fill:#004A4C;fill-opacity:1.0"/>
<rect x="403.39395" y="713.697" width="31.030304" height="31.030304" rx="0.0" ry="0.0" style="fill:#004A4C;fill-opacity:1.0"/>
<rect x="496.48486" y="713.697" width="31.030304" height="31.030304" rx="0.0" ry="0.0" style="fill:#004A4C;fill-opacity:1.0"/>
<rect x="620.6061" y="713.697" width="31.030304" height="31.030304" rx="0.0" ry="0.0" style="fill:#004A4C;fill-opacity:1.0"/>
<rect x="744.7273" y="713.697" width="31.030304" height="31.030304" rx="0.0" ry="0.0" style="fill:#004A4C;fill-opacity:1.0"/>
<rect x="775.75757" y="713.697" width="31.030304" height="31.030304" rx="0.0" ry="0.0" style="fill:#004A4C;fill-opacity:1.0"/>
<rect x="806.7879" y="713.697" width="31.030304" height="31.030304" rx="0.0" ry="0.0" style="fill:#004A4C;fill-opacity:1.0"/>
<rect x="837.81824" y="713.697" width="31.030304" height="31.030304" rx="0.0" ry="0.0" style="fill:#004A4C;fill-opacity:1.0"/>
<rect x="868.8485" y="713.697" width="31.030304" height="31.030304" rx="0.0" ry="0.0" style="fill:#004A4C;fill-opacity:1.0"/>
<rect x="124.121216" y="744.7273" width="31.030304" height="31.030304" rx="0.0" ry="0.0" style="fill:#004A4C;fill-opacity:1.0"/>
<rect x="186.18182" y="744.7273" width="31.030304" height="31.030304" rx="0.0" ry="0.0" style="fill:#004A4C;fill-opacity:1.0"/>
<rect x="217.21213" y="744.7273" width="31.030304" height="31.030304" rx="0.0" ry="0.0" style="fill:#004A4C;fill-opacity:1.0"/>
<rect x="248.24243" y="744.7273" width="31.030304" height="31.030304" rx="0.0" ry="0.0" style="fill:#004A4C;fill-opacity:1.0"/>
<rect x="310.30304" y="744.7273" width="31.030304" height="31.030304" rx="0.0" ry="0.0" style="fill:#004A4C;fill-opacity:1.0"/>
<rect x="403.39395" y="744.7273" width="31.030304" height="31.030304" rx="0.0" ry="0.0" style="fill:#004A4C;fill-opacity:1.0"/>
<rect x="434.42426" y="744.7273" width="31.030304" height="31.030304" rx="0.0" ry="0.0" style="fill:#004A4C;fill-opacity:1.0"/>
<rect x="465.45456" y="744.7273" width="31.030304" height="31.030304" rx="0.0" ry="0.0" style="fill:#004A4C;fill-opacity:1.0"/>
<rect x="527.51514" y="744.7273" width="31.030304" height="31.030304" rx="0.0" ry="0.0" style="fill:#004A4C;fill-opacity:1.0"/>
<rect x="620.6061" y="744.7273" width="31.030304" height="31.030304" rx="0.0" ry="0.0" style="fill:#004A4C;fill-opacity:1.0"/>
<rect x="651.63635" y="744.7273" width="31.030304" height="31.030304" rx="0.0" ry="0.0" style="fill:#004A4C;fill-opacity:1.0"/>
<rect x="682.6667" y="744.7273" width="31.030304" height="31.030304" rx="0.0" ry="0.0" style="fill:#004A4C;fill-opacity:1.0"/>
<rect x="713.697" y="744.7273" width="31.030304" height="31.030304" rx="0.0" ry="0.0" style="fill:#004A4C;fill-opacity:1.0"/>
<rect x="744.7273" y="744.7273" width="31.030304" height="31.030304" rx="0.0" ry="0.0" style="fill:#004A4C;fill-opacity:1.0"/>
<rect x="806.7879" y="744.7273" width="31.030304" height="31.030304" rx="0.0" ry="0.0" style="fill:#004A4C;fill-opacity:1.0"/>
<rect x="837.81824" y="744.7273" width="31.030304" height="31.030304" rx="0.0" ry="0.0" style="fill:#004A4C;fill-opacity:1.0"/>
<rect x="124.121216" y="775.75757" width="31.030304" height="31.030304" rx="0.0" ry="0.0" style="fill:#004A4C;fill-opacity:1.0"/>
<rect x="186.18182" y="775.75757" width="31.030304" height="31.030304" rx="0.0" ry="0.0" style="fill:#004A4C;fill-opacity:1.0"/>
<rect x="217.21213" y="775.75757" width="31.030304" height="31.030304" rx="0.0" ry="0.0" style="fill:#004A4C;fill-opacity:1.0"/>
<rect x="248.24243" y="775.75757" width="31.030304" height="31.030304" rx="0.0" ry="0.0" style="fill:#004A4C;fill-opacity:1.0"/>
<rect x="310.30304" y="775.75757" width="31.030304" height="31.030304" rx="0.0" ry="0.0" style="fill:#004A4C;fill-opacity:1.0"/>
<rect x="372.36365" y="775.75757" width="31.030304" height="31.030304" rx="0.0" ry="0.0" style="fill:#004A4C;fill-opacity:1.0"/>
<rect x="434.42426" y="775.75757" width="31.030304" height="31.030304" rx="0.0" ry="0.0" style="fill:#004A4C;fill-opacity:1.0"/>
<rect x="465.45456" y="775.75757" width="31.030304" height="31.030304" rx="0.0" ry="0.0" style="fill:#004A4C;fill-opacity:1.0"/>
<rect x="527.51514" y="775.75757" width="31.030304" height="31.030304" rx="0.0" ry="0.0" style="fill:#004A4C;fill-opacity:1.0"/>
<rect x="620.6061" y="775.75757" width="31.030304" height="31.030304" rx="0.0" ry="0.0" style="fill:#004A4C;fill-opacity:1.0"/>
<rect x="713.697" y="775.75757" width="31.030304" height="31.030304" rx="0.0" ry="0.0" style="fill:#004A4C;fill-opacity:1.0"/>
<rect x="744.7273" y="775.75757" width="31.030304" height="31.030304" rx="0.0" ry="0.0" style="fill:#004A4C;fill-opacity:1.0"/>
<rect x="124.121216" y="806.7879" width="31.030304" height="31.030304" rx="0.0" ry="0.0" style="fill:#004A4C;fill-opacity:1.0"/>
<rect x="186.18182" y="806.7879" width="31.030304" height="31.030304" rx="0.0" ry="0.0" style="fill:#004A4C;fill-opacity:1.0"/>
<rect x="217.21213" y="806.7879" width="31.030304" height="31.030304" rx="0.0" ry="0.0" style="fill:#004A4C;fill-opacity:1.0"/>
<rect x="248.24243" y="806.7879" width="31.030304" height="31.030304" rx="0.0" ry="0.0" style="fill:#004A4C;fill-opacity:1.0"/>
<rect x="310.30304" y="806.7879" width="31.030304" height="31.030304" rx="0.0" ry="0.0" style="fill:#004A4C;fill-opacity:1.0"/>
<rect x="465.45456" y="806.7879" width="31.030304" height="31.030304" rx="0.0" ry="0.0" style="fill:#004A4C;fill-opacity:1.0"/>
<rect x="496.48486" y="806.7879" width="31.030304" height="31.030304" rx="0.0" ry="0.0" style="fill:#004A4C;fill-opacity:1.0"/>
<rect x="558.5455" y="806.7879" width="31.030304" height="31.030304" rx="0.0" ry="0.0" style="fill:#004A4C;fill-opacity:1.0"/>
<rect x="589.5758" y="806.7879" width="31.030304" height="31.030304" rx="0.0" ry="0.0" style="fill:#004A4C;fill-opacity:1.0"/>
<rect x="651.63635" y="806.7879" width="31.030304" height="31.030304" rx="0.0" ry="0.0" style="fill:#004A4C;fill-opacity:1.0"/>
<rect x="682.6667" y="806.7879" width="31.030304" height="31.030304" rx="0.0" ry="0.0" style="fill:#004A4C;fill-opacity:1.0"/>
<rect x="713.697" y="806.7879" width="31.030304" height="31.030304" rx="0.0" ry="0.0" style="fill:#004A4C;fill-opacity:1.0"/>
<rect x="775.75757" y="806.7879" width="31.030304" height="31.030304" rx="0.0" ry="0.0" style="fill:#004A4C;fill-opacity:1.0"/>
<rect x="806.7879" y="806.7879" width="31.030304" height="31.030304" rx="0.0" ry="0.0" style="fill:#004A4C;fill-opacity:1.0"/>
<rect x="868.8485" y="806.7879" width="31.030304" height="31.030304" rx="0.0" ry="0.0" style="fill:#004A4C;fill-opacity:1.0"/>
<rect x="124.121216" y="837.81824" width="31.030304" height="31.030304" rx="0.0" ry="0.0" style="fill:#004A4C;fill-opacity:1.0"/>
<rect x="310.30304" y="837.81824" width="31.030304" height="31.030304" rx="0.0" ry="0.0" style="fill:#004A4C;fill-opacity:1.0"/>
<rect x="372.36365" y="837.81824" width="31.030304" height="31.030304" rx="0.0" ry="0.0" style="fill:#004A4C;fill-opacity:1.0"/>
<rect x="434.42426" y="837.81824" width="31.030304" height="31.030304" rx="0.0" ry="0.0" style="fill:#004A4C;fill-opacity:1.0"/>
<rect x="465.45456" y="837.81824" width="31.030304" height="31.030304" rx="0.0" ry="0.0" style="fill:#004A4C;fill-opacity:1.0"/>
<rect x="496.48486" y="837.81824" width="31.030304" height="31.030304" rx="0.0" ry="0.0" style="fill:#004A4C;fill-opacity:1.0"/>
<rect x="558.5455" y="837.81824" width="31.030304" height="31.030304" rx="0.0" ry="0.0" style="fill:#004A4C;fill-opacity:1.0"/>
<rect x="589.5758" y="837.81824" width="31.030304" height="31.030304" rx="0.0" ry="0.0" style="fill:#004A4C;fill-opacity:1.0"/>
<rect x="651.63635" y="837.81824" width="31.030304" height="31.030304" rx="0.0" ry="0.0" style="fill:#004A4C;fill-opacity:1.0"/>
<rect x="775.75757" y="837.81824" width="31.030304" height="31.030304" rx="0.0" ry="0.0" style="fill:#004A4C;fill-opacity:1.0"/>
<rect x="837.81824" y="837.81824" width="31.030304" height="31.030304" rx="0.0" ry="0.0" style="fill:#004A4C;fill-opacity:1.0"/>
<rect x="868.8485" y="837.81824" width="31.030304" height="31.030304" rx="0.0" ry="0.0" style="fill:#004A4C;fill-opacity:1.0"/>
<rect x="124.121216" y="868.8485" width="31.030304" height="31.030304" rx="0.0" ry="0.0" style="fill:#004A4C;fill-opacity:1.0"/>
<rect x="155.15152" y="868.8485" width="31.030304" height="31.030304" rx="0.0" ry="0.0" style="fill:#004A4C;fill-opacity:1.0"/>
<rect x="186.18182" y="868.8485" width="31.030304" height="31.030304" rx="0.0" ry="0.0" style="fill:#004A4C;fill-opacity:1.0"/>
<rect x="217.21213" y="868.8485" width="31.030304" height="31.030304" rx="0.0" ry="0.0" style="fill:#004A4C;fill-opacity:1.0"/>
<rect x="248.24243" y="868.8485" width="31.030304" height="31.030304" rx="0.0" ry="0.0" style="fill:#004A4C;fill-opacity:1.0"/>
<rect x="279.27274" y="868.8485" width="31.030304" height="31.030304" rx="0.0" ry="0.0" style="fill:#004A4C;fill-opacity:1.0"/>
<rect x="310.30304" y="868.8485" width="31.030304" height="31.030304" rx="0.0" ry="0.0" style="fill:#004A4C;fill-opacity:1.0"/>
<rect x="372.36365" y="868.8485" width="31.030304" height="31.030304" rx="0.0" ry="0.0" style="fill:#004A4C;fill-opacity:1.0"/>
<rect x="496.48486" y="868.8485" width="31.030304" height="31.030304" rx="0.0" ry="0.0" style="fill:#004A4C;fill-opacity:1.0"/>
<rect x="527.51514" y="868.8485" width="31.030304" height="31.030304" rx="0.0" ry="0.0" style="fill:#004A4C;fill-opacity:1.0"/>
<rect x="589.5758" y="868.8485" width="31.030304" height="31.030304" rx="0.0" ry="0.0" style="fill:#004A4C;fill-opacity:1.0"/>
<rect x="620.6061" y="868.8485" width="31.030304" height="31.030304" rx="0.0" ry="0.0" style="fill:#004A4C;fill-opacity:1.0"/>
<rect x="651.63635" y="868.8485" width="31.030304" height="31.030304" rx="0.0" ry="0.0" style="fill:#004A4C;fill-opacity:1.0"/>
<rect x="744.7273" y="868.8485" width="31.030304" height="31.030304" rx="0.0" ry="0.0" style="fill:#004A4C;fill-opacity:1.0"/>
<rect x="775.75757" y="868.8485" width="31.030304" height="31.030304" rx="0.0" ry="0.0" style="fill:#004A4C;fill-opacity:1.0"/>
<rect x="837.81824" y="868.8485" width="31.030304" height="31.030304" rx="0.0" ry="0.0" style="fill:#004A4C;fill-opacity:1.0"/>
<rect x="868.8485" y="868.8485" width="31.030304" height="31.030304" rx="0.0" ry="0.0" style="fill:#004A4C;fill-opacity:1.0"/>
</svg>
